<svg width="36" height="36" viewBox="0 0 36 36" fill="none" xmlns="http://www.w3.org/2000/svg">
<path d="M27.0396 25.938C27.0396 24.3936 26.5968 22.8492 25.7148 21.7476C24.1704 19.9836 22.4064 19.1016 20.2032 19.1016C18.8784 19.1016 17.5572 19.1016 16.2324 19.1016C14.688 19.1016 13.3668 19.5444 12.042 20.4264C10.4976 21.528 9.61559 23.0724 9.39599 24.8364C9.17639 26.82 9.39599 29.0268 9.17639 31.23C9.39599 31.23 9.83879 31.4496 10.0584 31.4496C12.7044 32.112 15.1308 32.7744 17.7768 32.7744C19.3212 32.7744 21.0852 32.7744 22.6296 32.5548C23.9544 32.3352 25.2756 31.8924 26.6004 31.4532C26.82 31.4532 26.82 31.2336 26.82 31.0104C27.0396 29.2464 27.0396 27.4824 27.0396 25.938Z" fill="black"/>
<path d="M12.708 18.6624C13.1472 18.4428 13.3704 18.4428 13.8096 18.2196C12.4848 16.8948 11.826 15.5736 11.826 13.8096C10.2816 13.8096 8.73719 13.8096 7.19639 13.8096C6.31439 13.8096 5.43239 14.0292 4.76999 14.2524C2.34359 15.1344 0.359985 17.5608 0.359985 20.2068C0.359985 21.9708 0.359985 23.7348 0.359985 25.7184C0.359985 25.938 0.359985 25.938 0.579585 26.1612C2.34359 26.604 4.10759 27.0432 5.87159 27.2628C6.53399 27.2628 7.41599 27.4824 8.07839 27.4824C8.07839 27.0396 8.07839 26.6004 8.07839 26.1576C8.07839 25.4952 8.07839 24.8328 8.29799 24.174C8.96039 21.528 10.5048 19.764 12.708 18.6624Z" fill="black"/>
<path d="M35.6399 20.646C35.6399 19.764 35.4203 18.6624 34.9775 17.7804C33.6527 15.1344 31.6691 13.8132 28.8035 13.8132C24.6131 13.8132 28.8035 13.8132 24.6131 13.8132C24.6131 15.5772 23.9507 17.1216 22.6295 18.2232C22.8491 18.2232 23.0723 18.4428 23.0723 18.4428C24.1739 18.8856 25.2791 19.5444 26.1611 20.4264C27.4859 21.9708 28.1447 23.7348 28.1447 25.7184C28.1447 26.1612 28.1447 26.82 28.1447 27.2628C29.2463 27.0432 30.1283 27.0432 31.2335 26.82C32.5583 26.6004 34.0991 26.1576 35.4239 25.4952C35.6435 25.4952 35.6435 25.2756 35.6435 25.0524C35.6399 23.9544 35.6399 22.1904 35.6399 20.646Z" fill="black"/>
<path d="M18.2196 18.882C21.0852 18.882 23.5116 16.4556 23.292 13.59C23.292 10.7244 20.8656 8.51758 18.2196 8.51758C15.354 8.51758 12.9276 10.7244 12.9276 13.59C13.1508 16.4556 15.354 18.882 18.2196 18.882Z" fill="black"/>
<path d="M24.6168 13.1508C25.2792 13.3704 25.9416 13.5936 26.8236 13.5936C29.6892 13.5936 32.1156 11.1672 31.896 8.30159C31.896 5.43599 29.4696 3.22919 26.8236 3.22919C23.958 3.22919 21.5316 5.43599 21.5316 8.30159C23.292 9.17999 24.3936 10.944 24.6168 13.1508Z" fill="black"/>
<path d="M9.17994 13.59C10.0619 13.59 11.1635 13.3704 11.8259 12.9276C12.0455 11.1636 12.9275 9.61919 14.2523 8.73719V8.51759C14.2523 5.65199 11.8259 3.44519 9.17994 3.44519C6.31434 3.44519 3.88794 5.65199 3.88794 8.51759C3.88794 11.1636 6.31434 13.59 9.17994 13.59Z" fill="black"/>
</svg>
