<?xml version="1.0"?>
<svg xmlns="http://www.w3.org/2000/svg" viewBox="0 0 16 16" fill="#543884">
    <path style="line-height:normal;text-indent:0;text-align:start;text-decoration-line:none;text-decoration-style:solid;text-decoration-color:#000;text-transform:none;block-progression:tb;isolation:auto;mix-blend-mode:normal" d="M 8 3 C 6.3490681 3 5 4.3490681 5 6 C 5 6.9603906 5.4649627 7.8094412 6.171875 8.359375 C 5.7461181 8.527912 5.3556179 8.7564502 4.9960938 9.0292969 C 4.9962435 9.0192988 5 9.0100315 5 9 C 5 7.9013528 4.0986472 7 3 7 C 1.9013528 7 1 7.9013528 1 9 C 1 9.5359198 1.2172227 10.022505 1.5644531 10.382812 C 0.63783253 10.894611 0 11.8711 0 13 L 1 13 C 1 11.889094 1.8890941 11 3 11 C 3.1386918 11 3.2724373 11.014349 3.4023438 11.041016 C 3.1445003 11.643242 3 12.304957 3 13 L 4 13 C 4 10.785288 5.7852884 9 8 9 C 10.214712 9 12 10.785288 12 13 L 13 13 C 13 12.307124 12.855934 11.647599 12.599609 11.046875 C 12.729086 11.020489 12.861339 11 13 11 C 14.110906 11 15 11.889094 15 13 L 16 13 C 16 11.8711 15.362167 10.894611 14.435547 10.382812 C 14.782777 10.022505 15 9.5359198 15 9 C 15 7.9013528 14.098647 7 13 7 C 11.901353 7 11 7.9013528 11 9 C 11 9.0100315 11.003756 9.0192988 11.003906 9.0292969 C 10.644382 8.7564502 10.253882 8.527912 9.828125 8.359375 C 10.535037 7.8094412 11 6.9603906 11 6 C 11 4.3490681 9.6509319 3 8 3 z M 8 4 C 9.1104918 4 10 4.8895082 10 6 C 10 7.1104918 9.1104918 8 8 8 C 6.8895082 8 6 7.1104918 6 6 C 6 4.8895082 6.8895082 4 8 4 z M 3 8 C 3.5582071 8 4 8.4417929 4 9 C 4 9.5582071 3.5582071 10 3 10 C 2.4417929 10 2 9.5582071 2 9 C 2 8.4417929 2.4417929 8 3 8 z M 13 8 C 13.558207 8 14 8.4417929 14 9 C 14 9.5582071 13.558207 10 13 10 C 12.441793 10 12 9.5582071 12 9 C 12 8.4417929 12.441793 8 13 8 z" font-weight="400" font-family="sans-serif" white-space="normal" overflow="visible"/>
</svg>
