<svg width="58" height="32" viewBox="0 0 58 32" fill="none" xmlns="http://www.w3.org/2000/svg">
<path d="M19.3333 12.1667H12.0833V4.91668H7.25V12.1667H0V17H7.25V24.25H12.0833V17H19.3333V12.1667ZM43.5 14.5833C47.5117 14.5833 50.7258 11.345 50.7258 7.33334C50.7258 3.32168 47.5117 0.0833435 43.5 0.0833435C42.7267 0.0833435 41.9775 0.204177 41.3008 0.421676C42.6783 2.37918 43.4758 4.74751 43.4758 7.33334C43.4758 9.91918 42.6542 12.2633 41.3008 14.245C41.9775 14.4625 42.7267 14.5833 43.5 14.5833ZM31.4167 14.5833C35.4283 14.5833 38.6425 11.345 38.6425 7.33334C38.6425 3.32168 35.4283 0.0833435 31.4167 0.0833435C27.405 0.0833435 24.1667 3.32168 24.1667 7.33334C24.1667 11.345 27.405 14.5833 31.4167 14.5833ZM47.415 19.8033C49.4208 21.5675 50.75 23.815 50.75 26.6667V31.5H58V26.6667C58 22.945 52.2725 20.6492 47.415 19.8033ZM31.4167 19.4167C26.5833 19.4167 16.9167 21.8333 16.9167 26.6667V31.5H45.9167V26.6667C45.9167 21.8333 36.25 19.4167 31.4167 19.4167Z" fill="#543884"/>
</svg>
